HIERARCHY
ROOT Hips
{
 OFFSET 0.000000 0.000000 0.000000
 CHANNELS 6 Xposition Yposition Zposition Yrotation Xrotation Zrotation
 JOINT Chest
 {
  OFFSET 0.000000 9.812683 -0.003552
  CHANNELS 3 Yrotation Xrotation Zrotation
  JOINT Chest2
  {
   OFFSET 0.000000 9.777810 0.007248
   CHANNELS 3 Yrotation Xrotation Zrotation
   JOINT Chest3
   {
    OFFSET 0.000000 9.736392 0.000000
    CHANNELS 3 Yrotation Xrotation Zrotation
    JOINT Chest4
    {
     OFFSET 0.000000 9.726454 0.000000
     CHANNELS 3 Yrotation Xrotation Zrotation
     JOINT Neck
     {
      OFFSET 0.000000 14.679095 0.000000
      CHANNELS 3 Yrotation Xrotation Zrotation
      JOINT Head
      {
       OFFSET 0.000000 9.104124 0.015333
       CHANNELS 3 Yrotation Xrotation Zrotation
       End Site
       {
        OFFSET 0.000000 17.313862 0.008094
       }
      }
     }
     JOINT RightCollar
     {
      OFFSET -2.991841 9.728033 0.000000
      CHANNELS 3 Yrotation Xrotation Zrotation
      JOINT RightShoulder
      {
       OFFSET -14.105608 0.000000 0.000000
       CHANNELS 3 Yrotation Xrotation Zrotation
       JOINT RightElbow
       {
        OFFSET -30.920614 0.000000 0.000000
        CHANNELS 3 Yrotation Xrotation Zrotation
        JOINT RightWrist
        {
         OFFSET -25.011638 0.000000 0.000000
         CHANNELS 3 Yrotation Xrotation Zrotation
         End Site
         {
          OFFSET -18.498852 0.000000 0.000000
         }
        }
       }
      }
     }
     JOINT LeftCollar
     {
      OFFSET 2.991841 9.728033 0.000000
      CHANNELS 3 Yrotation Xrotation Zrotation
      JOINT LeftShoulder
      {
       OFFSET 14.105608 0.000000 0.000000
       CHANNELS 3 Yrotation Xrotation Zrotation
       JOINT LeftElbow
       {
        OFFSET 30.920614 0.000000 0.000000
        CHANNELS 3 Yrotation Xrotation Zrotation
        JOINT LeftWrist
        {
         OFFSET 25.011638 0.000000 0.000000
         CHANNELS 3 Yrotation Xrotation Zrotation
         End Site
         {
          OFFSET 18.498852 0.000000 0.000000
         }
        }
       }
      }
     }
    }
   }
  }
 }
 JOINT RightHip
 {
  OFFSET -8.005612 0.017580 0.001776
  CHANNELS 3 Yrotation Xrotation Zrotation
  JOINT RightKnee
  {
   OFFSET 0.000000 -41.413990 -0.001697
   CHANNELS 3 Yrotation Xrotation Zrotation
   JOINT RightAnkle
   {
    OFFSET 0.000000 -40.303361 -0.002870
    CHANNELS 3 Yrotation Xrotation Zrotation
    JOINT RightToe
    {
     OFFSET 0.000000 -7.855341 17.873357
     CHANNELS 3 Yrotation Xrotation Zrotation
     End Site
     {
      OFFSET 0.000000 -1.536332 6.874071
     }
    }
   }
  }
 }
 JOINT LeftHip
 {
  OFFSET 8.005612 0.017580 0.001776
  CHANNELS 3 Yrotation Xrotation Zrotation
  JOINT LeftKnee
  {
   OFFSET 0.000000 -41.413990 -0.001697
   CHANNELS 3 Yrotation Xrotation Zrotation
   JOINT LeftAnkle
   {
    OFFSET 0.000000 -40.303361 -0.002870
    CHANNELS 3 Yrotation Xrotation Zrotation
    JOINT LeftToe
    {
     OFFSET 0.000000 -7.855341 17.873357
     CHANNELS 3 Yrotation Xrotation Zrotation
     End Site
     {
      OFFSET 0.000000 -1.536332 6.874071
     }
    }
   }
  }
 }
}
MOTION
Frames: 11
Frame Time: 0.008333
0.000000 89.373800 0.000000 0.000000 -5.767889 0.000000 0.000000 11.653876 0.000000 0.000000 -5.885988 0.000000 0.000000 -0.000000 0.000000 0.000000 -0.000000 0.000000 0.000000 12.528808 0.000000 0.000000 0.711711 0.000000 0.000000 -0.000000 0.000000 0.000000 -0.000000 0.000000 2.309063 -0.000000 0.000000 -2.309063 -0.000000 -0.000000 0.000000 -0.000000 0.000000 0.000000 0.000000 0.000000 -2.309063 0.000000 0.000000 2.309063 -0.000000 0.000000 0.000000 8.520374 0.000000 0.000000 1.905768 0.000000 -0.000000 -4.658254 0.000000 0.000000 -0.000000 0.000000 0.000000 8.520374 0.000000 0.000000 1.905768 0.000000 -0.000000 -4.658254 0.000000 0.000000 -0.000000 0.000000
-18.286404 87.617829 16.945926 -158.627950 -10.769307 3.694851 -3.467055 11.463898 1.928734 -0.275340 0.820556 0.184663 -0.469251 1.403624 0.313396 -3.282872 10.311335 2.043091 8.168636 14.687952 -7.601178 11.077864 -9.693621 -10.572098 -0.337313 2.374635 -5.746688 11.892142 -1.045937 80.661872 73.200929 -19.564699 29.867967 6.837839 0.564294 10.330596 1.069655 5.284959 -3.536595 3.530865 -5.721446 -82.927497 -36.204979 19.973986 -12.851105 8.775566 -4.930111 -6.723227 -17.070629 -6.605824 -3.714314 13.607747 34.507667 -2.695956 -17.101714 -18.720315 6.924107 0.081202 -0.050793 0.149528 -12.006628 -26.415368 4.359167 7.406215 53.856836 -3.720831 -2.349706 -13.036899 -9.005452 -0.077235 0.228035 0.462285
-18.302400 87.598964 16.949102 -158.554994 -10.758066 3.573270 -3.579077 11.435845 2.048924 -0.279038 0.831153 0.186123 -0.475356 1.421197 0.315708 -3.304097 10.371515 2.041959 8.193833 14.715766 -7.606605 11.108876 -9.660011 -10.585391 -0.297872 2.330295 -5.751690 11.850356 -1.041646 80.536864 73.161206 -19.658927 29.890918 6.878975 0.533371 10.305839 1.040024 5.245518 -3.612306 3.725783 -5.872426 -82.984637 -36.033362 19.608582 -12.782441 8.893235 -5.108774 -6.839351 -17.262383 -6.731952 -3.600140 13.682838 34.783612 -2.686078 -17.044849 -18.797543 6.954065 0.034319 -0.122085 0.128174 -12.052163 -26.773204 4.723870 7.605085 54.180332 -3.325942 -2.985914 -13.137608 -8.929691 -0.016380 0.349100 0.135881
-18.345593 87.578323 16.950116 -158.573188 -10.822656 3.568891 -3.628543 11.497696 2.058126 -0.283210 0.841078 0.187787 -0.482274 1.437635 0.318369 -3.331791 10.425856 2.043611 8.221433 14.746065 -7.616604 11.144110 -9.623038 -10.604809 -0.253955 2.294247 -5.758074 11.816682 -1.061083 80.412264 73.099899 -19.748663 29.906179 6.920028 0.500990 10.289071 1.006618 5.218689 -3.686352 3.946269 -6.043158 -83.058833 -35.825139 19.231161 -12.711351 8.995523 -5.244016 -6.975177 -17.325480 -6.811921 -3.599952 13.733415 35.072456 -2.708935 -17.041176 -18.896043 7.010272 0.018177 -0.166850 0.121877 -11.934358 -26.873528 4.887744 7.903086 54.147627 -2.847186 -3.440610 -13.456099 -8.776424 -0.001745 0.736755 -0.215006
-18.394657 87.551082 16.959684 -158.583249 -10.871467 3.573503 -3.687015 11.557454 2.056124 -0.287701 0.850048 0.189532 -0.489749 1.452472 0.321175 -3.364734 10.473085 2.047051 8.249057 14.781689 -7.629949 11.180239 -9.579795 -10.628068 -0.209916 2.269732 -5.766604 11.803677 -1.101891 80.294853 73.028630 -19.827945 29.900489 6.954497 0.479056 10.272937 0.971994 5.207519 -3.754132 4.173307 -6.233606 -83.149240 -35.594820 18.885598 -12.623607 9.048571 -5.305401 -7.067823 -17.363816 -6.918231 -3.591028 13.760464 35.376084 -2.761745 -17.064987 -18.974500 7.079824 0.019821 -0.227207 0.125699 -11.849724 -27.001507 5.061781 8.175735 54.045616 -2.404376 -3.733971 -13.750675 -8.596937 0.011211 1.086090 -0.551530
-18.445206 87.515862 16.979939 -158.590729 -10.891263 3.572270 -3.742862 11.602024 2.061787 -0.292583 0.857917 0.191389 -0.497900 1.465465 0.324180 -3.403909 10.512222 2.052710 8.275762 14.826422 -7.645357 11.215610 -9.526203 -10.653224 -0.165383 2.259788 -5.779326 11.801284 -1.164403 80.187239 72.956891 -19.890000 29.877102 6.981324 0.471065 10.247824 0.938232 5.204731 -3.815295 4.389546 -6.432763 -83.253859 -35.353755 18.611473 -12.508803 9.035893 -5.314140 -7.096319 -17.382193 -7.060476 -3.551458 13.771227 35.703478 -2.842464 -17.113882 -19.088978 7.164713 0.027401 -0.255884 0.134640 -11.830313 -27.157774 5.267424 8.391917 53.860645 -2.034743 -3.821538 -13.982524 -8.405754 0.020744 1.383845 -0.867749
-18.498618 87.472207 17.011083 -158.587144 -10.891614 3.573539 -3.805133 11.637094 2.064620 -0.297882 0.864733 0.193324 -0.506776 1.476699 0.327324 -3.449531 10.543667 2.060023 8.301625 14.882079 -7.661054 11.249713 -9.460342 -10.678126 -0.118671 2.266014 -5.796547 11.788147 -1.247152 80.086386 72.896376 -19.937471 29.854409 7.001008 0.470613 10.210462 0.905473 5.201233 -3.870199 4.581622 -6.626363 -83.367940 -35.106953 18.418962 -12.362026 8.964837 -5.317030 -7.062180 -17.389360 -7.237688 -3.496824 13.759379 36.059100 -2.953411 -17.175104 -19.213829 7.269947 0.039003 -0.279222 0.144229 -11.889915 -27.332430 5.484574 8.546440 53.591196 -1.739081 -3.699330 -14.137327 -8.206647 0.027712 1.631933 -1.163871
-18.555465 87.419473 17.053127 -158.568017 -10.878793 3.579943 -3.874845 11.665266 2.062760 -0.303613 0.870825 0.195200 -0.516395 1.486719 0.330369 -3.501240 10.569644 2.066904 8.325237 14.948567 -7.676029 11.280552 -9.382497 -10.701143 -0.073329 2.285635 -5.818421 11.757221 -1.344996 79.989871 72.853425 -19.978205 29.840326 7.017177 0.471673 10.158525 0.872575 5.195800 -3.916321 4.736210 -6.807556 -83.486712 -34.858668 18.288879 -12.180904 8.867968 -5.334840 -6.982483 -17.380960 -7.447852 -3.437668 13.708985 36.447695 -3.091816 -17.241343 -19.350320 7.400692 0.050509 -0.299257 0.148684 -12.019752 -27.515909 5.700150 8.665372 53.234784 -1.485254 -3.413534 -14.205841 -7.994098 0.032907 1.833859 -1.442320
-18.617922 87.357587 17.103272 -158.519417 -10.876522 3.593968 -3.964564 11.705845 2.050328 -0.310010 0.877007 0.196955 -0.527140 1.496876 0.333197 -3.560125 10.594916 2.071251 8.345682 15.023814 -7.690596 11.307198 -9.295030 -10.722443 -0.033064 2.310583 -5.844828 11.715364 -1.449707 79.901152 72.831477 -20.019932 29.832987 7.035970 0.469597 10.090163 0.839260 5.188527 -3.950041 4.848004 -6.978636 -83.603257 -34.615738 18.201425 -11.970989 8.777296 -5.362825 -6.874441 -17.367521 -7.670327 -3.391441 13.620442 36.866204 -3.247455 -17.317821 -19.470029 7.550006 0.071682 -0.342938 0.153166 -12.206643 -27.688143 5.897596 8.784686 52.801127 -1.234832 -3.032062 -14.187262 -7.753345 0.037723 1.992600 -1.706664
-18.682395 87.284888 17.163883 -158.464961 -10.862957 3.604425 -4.047371 11.737961 2.044387 -0.317277 0.883923 0.198637 -0.539347 1.508233 0.335876 -3.627041 10.623046 2.072565 8.363645 15.106370 -7.706337 11.331019 -9.199371 -10.744190 0.005983 2.336421 -5.876968 11.663727 -1.557835 79.827049 72.830180 -20.064643 29.832966 7.064434 0.463859 10.011746 0.806937 5.177931 -3.972144 4.919407 -7.140276 -83.710822 -34.386247 18.150983 -11.746527 8.701160 -5.397133 -6.746400 -17.336155 -7.915010 -3.345645 13.520450 37.306441 -3.399938 -17.386991 -19.635309 7.711235 0.083330 -0.351723 0.152502 -12.408361 -27.871400 6.098225 8.916074 52.306017 -0.972230 -2.609529 -14.085688 -7.472431 0.041287 2.112772 -1.957347
-18.751476 87.201286 17.232208 -158.394286 -10.859312 3.616326 -4.137453 11.781346 2.036478 -0.325407 0.892017 0.200309 -0.552991 1.521526 0.338510 -3.700691 10.656676 2.071100 8.379608 15.194824 -7.724159 11.352926 -9.096977 -10.767667 0.045959 2.362608 -5.915532 11.600906 -1.673555 79.771257 72.847858 -20.108806 29.839550 7.108554 0.454812 9.931023 0.773112 5.161052 -3.987493 4.954570 -7.285908 -83.802469 -34.179343 18.129097 -11.517645 8.636879 -5.433105 -6.611714 -17.306968 -8.161537 -3.318876 13.446991 37.760941 -3.522511 -17.472734 -19.823461 7.879098 0.085549 -0.345228 0.148115 -12.609982 -28.048858 6.284871 9.056769 51.760290 -0.691779 -2.184823 -13.915827 -7.150617 0.045512 2.204795 -2.188883
